<?xml version="1.0" encoding="utf-8"?>
<!-- Generator: Adobe Illustrator 17.0.0, SVG Export Plug-In . SVG Version: 6.00 Build 0)  -->
<svg version="1.2" baseProfile="tiny" id="Слой_1"
	 xmlns="http://www.w3.org/2000/svg" xmlns:xlink="http://www.w3.org/1999/xlink" x="0px" y="0px" width="66.667px"
	 height="66.667px" viewBox="17.963 1.111 66.667 66.667" xml:space="preserve">
<g>
	<path fill="#1ABC9C" d="M17.963,67.778H84.63v-20.37H17.963V67.778z M19.815,49.259h62.963v14.815H19.815V49.259z"/>
	<path fill="#1ABC9C" d="M17.963,44.667H84.63v-20.37H17.963V44.667z M19.815,26.148h62.963v14.815H19.815V26.148z"/>
	<path fill="#1ABC9C" d="M17.963,21.481H84.63V1.111H17.963V21.481z M19.815,2.963h62.963v14.815H19.815V2.963z"/>
	<polygon fill="#1ABC9C" points="33.444,29.333 29.074,33.704 25.815,30.444 24.852,29.407 22.185,32.074 29.074,38.889 
		37.815,30.222 35.148,27.556 	"/>
	<rect x="47.593" y="5.778" fill="#1ABC9C" width="29.63" height="1.852"/>
	<rect x="40.185" y="9.481" fill="#1ABC9C" width="37.037" height="1.852"/>
	<rect x="40.185" y="13.185" fill="#1ABC9C" width="33.333" height="1.852"/>
	<rect x="47.593" y="28.889" fill="#1ABC9C" width="29.63" height="1.852"/>
	<rect x="40.185" y="32.593" fill="#1ABC9C" width="37.037" height="1.852"/>
	<rect x="40.185" y="36.296" fill="#1ABC9C" width="33.333" height="1.852"/>
	<rect x="47.593" y="52.074" fill="#1ABC9C" width="29.63" height="1.852"/>
	<rect x="40.185" y="55.778" fill="#1ABC9C" width="37.037" height="1.852"/>
	<rect x="40.185" y="59.481" fill="#1ABC9C" width="33.333" height="1.852"/>
	<polygon fill="#1ABC9C" points="32.407,50.741 29.074,54.074 25.741,50.741 23.148,53.333 26.481,56.667 23.148,60 25.741,62.593 
		29.074,59.259 32.407,62.593 35,60 31.667,56.667 35,53.333 	"/>
	<polygon fill="#1ABC9C" points="32.407,4.444 29.074,7.778 25.741,4.444 23.148,7.037 26.481,10.37 23.148,13.704 25.741,16.296 
		29.074,12.963 32.407,16.296 35,13.704 31.667,10.37 35,7.037 	"/>
</g>
</svg>
