<?xml version="1.0" encoding="utf-8"?>
<!-- Generator: Adobe Illustrator 17.0.0, SVG Export Plug-In . SVG Version: 6.00 Build 0)  -->
<svg version="1.2" baseProfile="tiny" id="Layer_1" xmlns="http://www.w3.org/2000/svg" xmlns:xlink="http://www.w3.org/1999/xlink"
	 x="0px" y="0px" width="75px" height="55.141px" viewBox="4.278 -10.548 75 55.141" xml:space="preserve">
<g>
	<path fill="#1ABC9C" d="M68.761,37.262l-1.224-2.035c6.12-3.831,9.793-10.297,9.793-17.481S73.535,3.976,67.292,0.145l1.224-2.035
		C75.494,2.3,79.778,9.724,79.778,17.746C79.778,25.648,75.616,32.951,68.761,37.262z"/>
</g>
<g>
	<path fill="#1ABC9C" d="M63.498,31.754l-1.591-1.796c3.55-3.113,5.631-7.543,5.631-12.213s-2.081-9.219-5.631-12.332l1.591-1.796
		c4.162,3.592,6.488,8.74,6.488,14.128S67.659,28.282,63.498,31.754z"/>
</g>
<g>
	<g>
		<path fill="#1ABC9C" d="M19.798,29.12h-3.672c-6.488,0-9.793-4.43-9.793-13.17s3.305-13.17,9.793-13.17h3.672V29.12z
			 M16.126,5.174c-3.427,0-7.344,1.197-7.344,10.776s3.917,10.776,7.344,10.776h1.224V5.174H16.126z"/>
	</g>
	<g>
		<path fill="#1ABC9C" d="M54.195,39.058c-0.734,0-1.346-0.239-1.959-0.599L37.792,29.12H19.798v-2.395h18.728l14.934,9.698
			c0.49,0.359,0.979,0.12,1.224,0c0.245-0.12,0.612-0.359,0.612-0.958v-40.11c0-0.479-0.245-0.838-0.612-0.958
			c-0.367-0.239-0.857-0.12-1.224,0.12L38.526,5.174H19.798V2.779h17.994L51.991-7.398c1.102-0.838,2.571-0.958,3.795-0.359
			s1.959,1.796,1.959,3.113v40.11c0,1.317-0.734,2.514-1.959,3.113C55.296,38.938,54.684,39.058,54.195,39.058z"/>
	</g>
	<g>
		<rect x="36.935" y="3.976" fill="#1ABC9C" width="2.448" height="23.946"/>
	</g>
	<g>
		<path fill="#1ABC9C" d="M24.817,44.685c-2.081,0-3.917-1.317-4.529-3.233l-4.162-13.17l2.326-0.718l4.162,13.17
			c0.245,0.958,1.224,1.557,2.203,1.557c0.734,0,1.346-0.359,1.836-0.958c0.49-0.599,0.612-1.317,0.367-2.035l-3.55-11.015
			l2.326-0.718l3.55,11.135c0.49,1.437,0.245,2.874-0.734,4.071C27.755,43.967,26.408,44.685,24.817,44.685z"/>
	</g>
</g>
</svg>
