<?xml version="1.0" encoding="utf-8"?>
<!-- Generator: Adobe Illustrator 17.0.0, SVG Export Plug-In . SVG Version: 6.00 Build 0)  -->
<svg version="1.2" baseProfile="tiny" id="Layer_1" xmlns="http://www.w3.org/2000/svg" xmlns:xlink="http://www.w3.org/1999/xlink"
	 x="0px" y="0px" width="59.931px" height="59.418px" viewBox="21.789 4.749 59.931 59.418" xml:space="preserve">
<g>
	<path fill="#1ABC9C" d="M80.851,12.513l-6.897-6.897c-0.556-0.556-1.31-0.867-2.095-0.867S70.32,5.06,69.764,5.616L39.779,35.602
		c-0.244,0.243-0.443,0.527-0.589,0.839l-6.066,12.963c-0.529,1.129-0.293,2.469,0.589,3.35c0.568,0.569,1.326,0.868,2.096,0.868
		c0.424,0,0.853-0.091,1.255-0.279l12.963-6.066c0.312-0.146,0.596-0.345,0.839-0.589l29.986-29.986
		C82.009,15.545,82.009,13.67,80.851,12.513z M47.043,42.131l-5.087,2.381l2.381-5.087l20.759-20.76l2.707,2.707L47.043,42.131z
		 M71.992,17.181l-2.706-2.706l2.574-2.574l2.706,2.707L71.992,17.181z"/>
	<path fill="#1ABC9C" d="M75.123,30.987c-1.636,0-2.963,1.327-2.963,2.963v20.247v2.199v1.844H27.716V13.704h2.471h2.221h22.099
		c1.636,0,2.963-1.327,2.963-2.963s-1.327-2.963-2.963-2.963H32.161h-1.975h-2.471c-3.273,0-5.926,2.653-5.926,5.926v44.537
		c0,3.273,2.653,5.926,5.926,5.926H72.16c3.273,0,5.926-2.653,5.926-5.926v-1.844v-2.199V33.95
		C78.086,32.314,76.759,30.987,75.123,30.987z"/>
</g>
</svg>
