<?xml version="1.0" encoding="utf-8"?>
<!-- Generator: Adobe Illustrator 17.0.0, SVG Export Plug-In . SVG Version: 6.00 Build 0)  -->
<svg version="1.2" baseProfile="tiny" id="Layer_1" xmlns="http://www.w3.org/2000/svg" xmlns:xlink="http://www.w3.org/1999/xlink"
	 x="0px" y="0px" width="67.159px" height="62.544px" viewBox="17.216 4.34 67.159 62.544" xml:space="preserve">
<path fill="#FFFFFF" d="M80.179,5.074c0.905-0.905,2.387-0.988,3.374-0.165l0,0c0.988,0.823,1.07,2.305,0.329,3.292l-38.107,48.23
	L43.8,58.901c-1.152,1.399-3.292,1.399-4.444,0l-2.14-2.881L25.529,40.794c-0.988-1.235-0.741-3.045,0.576-4.033l4.856-3.621
	c1.317-0.905,3.128-0.658,4.033,0.658l7.325,10.37L80.179,5.074z"/>
<path fill="#FFFFFF" d="M60.014,62.029h-37.86v-37.86h36.461l4.691-4.856c-0.247-0.082-0.494-0.165-0.823-0.165H19.685
	c-1.399,0-2.469,1.152-2.469,2.469v42.798c0,1.399,1.152,2.469,2.469,2.469h42.798c1.399,0,2.469-1.152,2.469-2.469V36.844
	l-5.021,6.337v18.848H60.014z"/>
</svg>
