<?xml version="1.0" encoding="utf-8"?>
<!-- Generator: Adobe Illustrator 17.0.0, SVG Export Plug-In . SVG Version: 6.00 Build 0)  -->
<svg version="1.2" baseProfile="tiny" id="Layer_1" xmlns="http://www.w3.org/2000/svg" xmlns:xlink="http://www.w3.org/1999/xlink"
	 x="0px" y="0px" width="74.075px" height="73.907px" viewBox="14.26 -2.587 74.075 73.907" xml:space="preserve">
<g>
	<path fill="#1ABC9C" d="M75.079,21.064L75.079,21.064c-1.551,0-3.778-0.587-5.584-3.384c-1.412-2.192-1.829-4.197-1.231-5.957
		c0.924-2.736,3.959-3.828,5.099-4.24c3.029-1.086,6.273,0.073,8.098,2.796c1.252,1.87,1.599,4.083,0.902,5.775
		C81.37,18.464,78.304,21.064,75.079,21.064z M75.73,10.148c-0.427,0-0.873,0.082-1.32,0.243c-0.757,0.273-2.773,0.999-3.219,2.322
		c-0.281,0.824,0.024,1.932,0.902,3.293c0.841,1.307,1.847,1.97,2.987,1.97c1.952,0.001,3.895-1.803,4.426-3.096
		c0.299-0.727,0.054-1.885-0.612-2.88C78.52,11.443,77.466,10.148,75.73,10.148z"/>
	<path fill="#1ABC9C" d="M45.717,35.789C45.716,35.789,45.716,35.789,45.717,35.789c-2.153-0.001-3.89-0.977-4.893-2.75
		c-1.719-3.039-1.174-5.284-0.416-6.632c1.436-2.552,4.467-3.557,6.155-3.61l0.187-0.003c1.157,0,5.047,0.416,6.519,5.767
		c0.359,1.31,0.025,2.725-0.937,3.988C50.876,34.456,48.157,35.789,45.717,35.789z M46.749,25.882
		c-1.12,0.034-2.93,0.759-3.649,2.038c-0.536,0.953-0.398,2.164,0.413,3.597c0.45,0.794,1.17,1.181,2.204,1.181
		c0.001,0,0.001,0,0.001,0c1.49,0,3.278-0.87,4.157-2.024c0.259-0.339,0.54-0.838,0.414-1.296
		C49.452,26.337,47.712,25.882,46.749,25.882z"/>
	<path fill="#1ABC9C" d="M79.958,71.32c-0.73,0-1.379-0.519-1.518-1.263l-2.247-12.081c-3.096,0.23-10.671,0.799-15.055,1.247
		c-4.613,0.467-8.022-1.329-10.147-5.354c-0.923-1.744-2.565-6.876-3.893-11.15l-0.101-0.323c-0.419-1.35-0.119-2.717,0.847-3.85
		c1.519-1.784,4.504-2.704,6.342-2.439c1.981,0.284,3.236,1.95,4.243,3.288c0.316,0.419,0.642,0.854,0.91,1.123
		c1.348,0.211,6.568-1.153,8.568-1.672c1.047-0.271,1.924-0.498,2.464-0.61c1.786-0.373,3.484,0.433,4.23,2.001
		c0.748,1.576,0.28,3.364-1.189,4.553c-1.597,1.294-6.076,2.448-12.306,3.783c-0.739,0.16-1.285,0.274-1.527,0.339
		c-3.701,0.988-5.696-1.95-6.546-3.205l-0.2-0.293c-0.492-0.696-0.325-1.661,0.37-2.153c0.698-0.493,1.662-0.325,2.154,0.371
		l0.233,0.343c1.066,1.575,1.857,2.307,3.191,1.952c0.265-0.071,0.866-0.201,1.674-0.374c2.39-0.513,9.661-2.071,11.009-3.164
		c0.199-0.16,0.507-0.479,0.344-0.827c-0.1-0.205-0.365-0.395-0.809-0.301c-0.51,0.106-1.334,0.321-2.319,0.576
		c-6.788,1.767-9.846,2.318-11.208,1.163c-0.551-0.466-1.02-1.087-1.516-1.747c-0.664-0.884-1.493-1.984-2.21-2.086
		c-0.828-0.116-2.733,0.419-3.553,1.384c-0.345,0.406-0.324,0.687-0.247,0.927l0.101,0.326c0.684,2.202,2.768,8.906,3.674,10.623
		c0.956,1.813,2.736,4.157,7.102,3.722c5.624-0.576,16.416-1.348,16.524-1.356c0.774-0.041,1.484,0.487,1.629,1.258l2.5,13.439
		c0.156,0.839-0.397,1.646-1.236,1.801C80.144,71.311,80.051,71.32,79.958,71.32z"/>
	<path fill="#1ABC9C" d="M83.15,70.424c-2.147,0-4.652-1.38-5.646-5.416c-0.204-0.83,0.3-1.666,1.13-1.87
		c0.825-0.202,1.665,0.301,1.869,1.131c0.536,2.169,1.613,3.276,2.973,3.039c0.908-0.16,1.815-0.96,1.715-1.893
		c-0.367-3.417-2.173-10.636-3.055-13.055c-0.05-0.128-0.555-1.276-2.313-1.142c-2.602,0.189-6.567,0.549-9.903,0.854
		c-2.53,0.231-4.701,0.428-5.657,0.495c-3.18,0.241-4.973-3.009-5.532-4.952c-0.237-0.82,0.236-1.678,1.056-1.913
		c0.819-0.235,1.673,0.233,1.912,1.05c0.176,0.599,1.062,2.774,2.35,2.732c0.945-0.065,3.089-0.261,5.59-0.49
		c3.355-0.304,7.343-0.667,9.961-0.858c3.301-0.221,4.97,1.878,5.439,3.166c0.931,2.556,2.823,10.056,3.223,13.783
		c0.261,2.445-1.646,4.806-4.253,5.264C83.733,70.4,83.445,70.424,83.15,70.424z"/>
	<path fill="#1ABC9C" d="M77.234,54.807l-24.061,3.539C52.303,52.799,48.984,36,40.431,33.615c-0.822-0.23-1.673,0.252-1.903,1.073
		c-0.23,0.822,0.251,1.673,1.073,1.902c6.405,1.787,9.819,17.064,10.679,23.313l-3.704,9.299c-0.316,0.793,0.071,1.693,0.864,2.007
		c0.187,0.075,0.381,0.11,0.571,0.11c0.614,0,1.195-0.368,1.436-0.974l3.523-8.846l24.712-3.636c0.845-0.124,1.427-0.91,1.304-1.753
		S78.067,54.681,77.234,54.807z"/>
	<path fill="#1ABC9C" d="M63.164,2.167c0.046-0.511-0.136-1.021-0.511-1.433c-1.588-1.738-9.458-3.321-16.51-3.321
		c-4.304,0-8.174,0.537-11.504,1.596C21.28,3.261,14.68,17.024,14.406,17.607c-0.261,0.557-0.167,1.217,0.24,1.679
		c0.298,0.339,0.723,0.524,1.159,0.524c0.159,0,0.32-0.025,0.477-0.076c7.076-2.296,13.067-4.265,18.164-5.968
		c-0.658,10.136-3.187,49.499-3.183,56.009c0.001,0.854,0.692,1.545,1.544,1.545h0.001c0.853-0.001,1.544-0.695,1.544-1.547
		c-0.004-6.642,2.784-49.778,3.259-57.07C62.973,4.163,63.071,3.186,63.164,2.167z M35.648,10.068c-0.01,0.004-0.02,0.007-0.03,0.01
		c-5.572,1.882-11.339,3.795-16.461,5.47c2.707-4.155,8.211-10.982,16.419-13.593c3.027-0.964,6.582-1.452,10.568-1.452
		c5.091,0,9.573,0.808,12.131,1.532C54.139,3.721,45.183,6.848,35.648,10.068z"/>
	<path fill="#1ABC9C" d="M69.388,33.678l-1.761-4.674L64.34,28.2c-0.412-0.103-0.831,0.152-0.934,0.567
		c-0.101,0.414,0.153,0.832,0.567,0.933l2.496,0.61l1.436,3.815l-3.244,0.979l2.532,5.069l4.039-0.926l0.386-6.242L69.388,33.678z"
		/>
	<path fill="#1ABC9C" d="M75.356,6.156c-0.766,0-1.433-0.571-1.529-1.353c-0.128-1.012-0.022-2.902-0.011-3.114
		c0.05-0.851,0.765-1.524,1.634-1.451c0.85,0.05,1.499,0.78,1.451,1.633c-0.041,0.693-0.079,1.996-0.01,2.549
		c0.106,0.846-0.495,1.619-1.341,1.725C75.487,6.153,75.421,6.156,75.356,6.156z"/>
	<path fill="#1ABC9C" d="M64.405,15.701c-0.863,0-1.611-0.159-1.715-0.181c-0.834-0.183-1.361-1.007-1.179-1.84
		c0.184-0.833,1.013-1.362,1.84-1.177c0.214,0.046,0.896,0.156,1.407,0.089c0.834-0.107,1.619,0.493,1.724,1.341
		c0.107,0.847-0.491,1.619-1.339,1.725C64.897,15.688,64.646,15.701,64.405,15.701z"/>
	<path fill="#1ABC9C" d="M85.799,15.541c-0.684,0-1.276-0.047-1.373-0.056c-0.85-0.073-1.48-0.819-1.407-1.669
		c0.071-0.849,0.823-1.489,1.668-1.41c0.326,0.027,1.307,0.081,1.91,0.007c0.833-0.102,1.621,0.493,1.726,1.341
		c0.106,0.847-0.493,1.619-1.34,1.725C86.607,15.525,86.188,15.541,85.799,15.541z"/>
	<path fill="#1ABC9C" d="M75.383,27.905c-0.768,0-1.432-0.571-1.531-1.353c-0.127-1.012-0.021-2.902-0.009-3.114
		c0.05-0.852,0.76-1.513,1.632-1.451c0.852,0.05,1.502,0.78,1.453,1.632c-0.041,0.693-0.079,1.996-0.01,2.549
		c0.107,0.847-0.492,1.619-1.34,1.725C75.512,27.901,75.447,27.905,75.383,27.905z"/>
	<path fill="#1ABC9C" d="M69.547,8.602c-0.541,0-1.067-0.285-1.35-0.791c-0.504-0.902-1.656-1.613-2.057-1.812
		c-0.763-0.376-1.081-1.299-0.707-2.064c0.371-0.765,1.288-1.087,2.057-0.714c0.236,0.114,2.333,1.168,3.405,3.084
		c0.416,0.744,0.149,1.686-0.596,2.102C70.059,8.539,69.801,8.602,69.547,8.602z"/>
	<path fill="#1ABC9C" d="M81.176,8.602c-0.514,0-1.016-0.256-1.31-0.723c-0.454-0.723-0.237-1.676,0.485-2.13
		c0.454-0.285,1.183-1.289,1.534-1.904c0.422-0.74,1.367-0.998,2.107-0.575s0.998,1.367,0.575,2.107
		c-0.204,0.356-1.285,2.179-2.573,2.987C81.741,8.526,81.456,8.602,81.176,8.602z"/>
	<path fill="#1ABC9C" d="M65.505,23.929c-0.539,0-1.064-0.283-1.347-0.787c-0.418-0.743-0.156-1.684,0.587-2.104
		c0.807-0.456,1.872-1.241,2.11-1.636c0.438-0.733,1.388-0.969,2.118-0.532c0.733,0.438,0.972,1.387,0.533,2.119
		c-0.787,1.315-2.84,2.515-3.244,2.741C66.022,23.864,65.761,23.929,65.505,23.929z"/>
	<path fill="#1ABC9C" d="M84.535,23.929c-0.947,0-2.806-0.521-3.393-2.527c-0.24-0.819,0.23-1.677,1.048-1.916
		c0.821-0.244,1.676,0.23,1.916,1.048c0.092,0.311,0.415,0.32,0.416,0.307c0.869-0.033,1.559,0.659,1.578,1.513
		c0.016,0.853-0.661,1.559-1.514,1.576C84.571,23.929,84.553,23.929,84.535,23.929z"/>
</g>
</svg>
