<?xml version="1.0" encoding="utf-8"?>
<!-- Generator: Adobe Illustrator 17.0.0, SVG Export Plug-In . SVG Version: 6.00 Build 0)  -->
<svg version="1.2" baseProfile="tiny" id="Layer_1" xmlns="http://www.w3.org/2000/svg" xmlns:xlink="http://www.w3.org/1999/xlink"
	 x="0px" y="0px" width="80px" height="58.817px" viewBox="10.916 1.987 80 58.817" xml:space="preserve">
<path fill="#1ABC9C" d="M91.75,21.677c0-0.271-0.145-0.521-0.378-0.654L88.889,19.6l2.489-1.456
	c0.231-0.135,0.373-0.386,0.372-0.657c0-0.271-0.145-0.521-0.378-0.654L62.932,0.525c-0.229-0.134-0.509-0.133-0.739,0.003
	L10.939,30.512c-0.232,0.135-0.373,0.387-0.373,0.658c0.001,0.271,0.145,0.521,0.378,0.654l2.481,1.423l-2.487,1.454
	c-0.232,0.135-0.373,0.387-0.373,0.657c0.001,0.271,0.145,0.521,0.378,0.654l2.482,1.423l-2.487,1.456
	c-0.232,0.135-0.373,0.386-0.373,0.657c0.001,0.271,0.145,0.521,0.378,0.654l2.482,1.423l-2.488,1.456
	c-0.232,0.135-0.373,0.386-0.373,0.657c0.001,0.271,0.145,0.521,0.378,0.654l28.438,16.309c0.114,0.066,0.24,0.099,0.366,0.099
	c0.129,0,0.257-0.034,0.373-0.102l21.197-12.401c0.069-0.016,0.144-0.019,0.209-0.057l10.38-6.057
	c0.08-0.048,0.134-0.122,0.19-0.192l19.28-11.279c0.231-0.135,0.373-0.387,0.372-0.658c0-0.271-0.145-0.521-0.378-0.654
	l-2.481-1.422l2.487-1.454c0.231-0.135,0.373-0.386,0.372-0.657c0-0.271-0.145-0.521-0.378-0.654l-2.482-1.425l2.489-1.455
	C91.609,22.199,91.751,21.948,91.75,21.677z M62.57,2.051l26.935,15.446L71.495,28.032L44.573,12.579L62.57,2.051z M12.813,31.16
	l19.865-11.621L59.61,34.983L39.745,46.604L12.813,31.16z M12.813,35.349l2.118-1.239l24.452,14.022
	c0.114,0.066,0.24,0.098,0.366,0.098c0.129,0,0.257-0.034,0.373-0.102l20.291-11.87v2.446L39.745,50.795L12.813,35.349z
	 M12.813,39.539l2.119-1.239l24.451,14.024c0.114,0.066,0.24,0.098,0.366,0.098c0.129,0,0.257-0.034,0.373-0.102l20.291-11.871
	v2.446l-20.668,12.09L12.813,39.539z M39.745,59.176L12.813,43.729l2.119-1.239l24.451,14.021c0.114,0.066,0.24,0.098,0.366,0.098
	c0.129,0,0.257-0.033,0.373-0.102l20.291-11.869v2.447L39.745,59.176z M89.504,30.066L72.282,40.142v-2.446l15.112-8.84
	L89.504,30.066z M89.504,25.878L72.282,35.952v-2.446l15.11-8.84L89.504,25.878z M72.282,31.762v-2.446l15.111-8.841l2.112,1.21
	L72.282,31.762z"/>
<g>
	<path fill="#1ABC9C" d="M21.405,27.994c0.492-0.286,1.028-0.517,1.612-0.69c0.582-0.172,1.135-0.295,1.663-0.367l0.403,0.749
		c-0.501,0.078-1.007,0.193-1.517,0.351c-0.518,0.157-0.955,0.344-1.322,0.558c-0.634,0.371-1.034,0.771-1.199,1.201
		c-0.161,0.429-0.106,0.855,0.171,1.278l3.636-2.129l0.89,0.523l-3.888,2.277c0.069,0.052,0.144,0.104,0.222,0.153
		c0.078,0.056,0.166,0.105,0.262,0.165c0.184,0.107,0.367,0.2,0.549,0.279l3.872-2.271l0.867,0.511l-3.611,2.114
		c0.727,0.16,1.466,0.186,2.217,0.077c0.753-0.107,1.44-0.341,2.055-0.701c0.378-0.221,0.699-0.481,0.962-0.782
		c0.264-0.297,0.462-0.592,0.594-0.887l1.193,0.285c-0.126,0.309-0.335,0.634-0.63,0.977c-0.296,0.341-0.687,0.658-1.18,0.945
		c-0.465,0.271-0.962,0.492-1.493,0.659c-0.53,0.169-1.072,0.282-1.624,0.344c-0.551,0.06-1.105,0.071-1.66,0.036
		c-0.555-0.04-1.088-0.13-1.594-0.275l-1.054,0.619l-0.863-0.511l0.856-0.502c-0.088-0.039-0.175-0.084-0.262-0.131
		c-0.087-0.046-0.177-0.098-0.275-0.155c-0.096-0.057-0.183-0.111-0.261-0.163c-0.078-0.052-0.152-0.102-0.223-0.154l-0.854,0.502
		l-0.892-0.525l1.068-0.626c-0.236-0.304-0.384-0.616-0.449-0.945c-0.062-0.325-0.041-0.653,0.065-0.976
		c0.108-0.325,0.302-0.64,0.584-0.949C20.579,28.551,20.946,28.264,21.405,27.994z"/>
</g>
</svg>
