<?xml version="1.0" encoding="utf-8"?>
<!-- Generator: Adobe Illustrator 17.0.0, SVG Export Plug-In . SVG Version: 6.00 Build 0)  -->
<svg version="1.2" baseProfile="tiny" id="Layer_1" xmlns="http://www.w3.org/2000/svg" xmlns:xlink="http://www.w3.org/1999/xlink"
	 x="0px" y="0px" width="66.667px" height="66.667px" viewBox="17.963 1.111 66.667 66.667" xml:space="preserve">
<g>
	<path fill="#1ABC9C" d="M60.739,52.293H60.7c-1.055,0-1.91,0.854-1.91,1.907v6.581c1.343-0.517,2.634-1.141,3.861-1.863V54.2
		C62.651,53.147,61.796,52.293,60.739,52.293z"/>
	<path fill="#1ABC9C" d="M38.072,52.293h-0.038c-1.056,0-1.912,0.854-1.912,1.907v4.719c1.227,0.721,2.519,1.345,3.861,1.863V54.2
		C39.984,53.147,39.128,52.293,38.072,52.293z"/>
	<path fill="#1ABC9C" d="M84.63,17.571c0-9.076-7.406-16.46-16.507-16.46c-4.552,0-8.679,1.845-11.667,4.827
		C54.18,5.415,51.822,5.11,49.387,5.11c-17.327,0-31.424,14.057-31.424,31.336c0,10.816,5.524,20.366,13.907,25.999
		c1.136,0.761,2.339,1.426,3.573,2.039c4.208,2.09,8.934,3.295,13.945,3.295s9.736-1.205,13.945-3.295
		c1.219-0.604,2.407-1.261,3.529-2.013c8.407-5.63,13.951-15.192,13.951-26.024c0-2.541-0.34-4.996-0.913-7.361
		C82.821,26.113,84.63,22.053,84.63,17.571z M68.122,3.072c8.019,0,14.541,6.504,14.541,14.499c0,7.994-6.523,14.499-14.541,14.499
		c-8.016,0-14.539-6.506-14.539-14.499C53.583,9.576,60.107,3.072,68.122,3.072z M67.05,59.895
		c-2.655,1.994-5.637,3.576-8.879,4.587c-2.776,0.867-5.725,1.336-8.783,1.336c-3.059,0-6.009-0.468-8.784-1.336
		c-3.303-1.031-6.336-2.65-9.027-4.699c-7.061-5.37-11.646-13.821-11.646-23.339c0-16.197,13.214-29.375,29.457-29.375
		c1.921,0,3.796,0.199,5.618,0.55c-0.721,0.941-1.341,1.961-1.847,3.045c-1.234-0.178-2.487-0.301-3.771-0.301
		c-14.447,0-26.155,11.676-26.155,26.08c0,7.501,3.193,14.242,8.276,18.999c0.082-2.064,0.343-4.276,0.904-6.407
		c1.904-7.242,12.749-4.224,12.749-9.873c0,0-4.249-4.235-4.249-12.006c0-4.67,3.816-8.475,8.497-8.475
		c0.796,0,1.55,0.144,2.282,0.35c0.401,4.525,2.638,8.533,5.972,11.263c-0.899,5.759-4.001,8.869-4.001,8.869
		c0,5.65,11.439,1.444,12.749,9.873c0.365,2.359,0.554,4.596,0.633,6.607c5.21-4.767,8.497-11.592,8.497-19.199
		c0-1.37-0.137-2.709-0.343-4.022c1.086-0.518,2.109-1.145,3.049-1.877c0.392,1.907,0.597,3.879,0.597,5.901
		C78.843,46.028,74.194,54.531,67.05,59.895z"/>
	<polygon fill="#1ABC9C" points="77.513,12.471 74.92,9.522 68.379,15.239 65.17,11.588 62.211,14.173 68.012,20.774 	"/>
</g>
</svg>
